<svg xmlns="http://www.w3.org/2000/svg" xmlns:xlink="http://www.w3.org/1999/xlink" width="193.815" height="83.127"
     viewBox="0 0 193.815 83.127">
    <defs>
        <clipPath id="clip-path">
            <rect id="Rectangle_105" data-name="Rectangle 105" width="193.815" height="83.127" fill="#fff"/>
        </clipPath>
    </defs>
    <g id="logo-cdr-horizontal-white-ee0281bd" clip-path="url(#clip-path)">
        <path id="Path_78" data-name="Path 78"
              d="M14.091,74.083a44.546,44.546,0,0,1,3.463-3.444c-.237-.02-.613-.066-1.021-.129-.88.8-2,1.972-3.008,3.049C12.249,74.935,11.2,76.134,11.2,76.14c-.016.01-.023.033-.04.046-.834.23-2.247.619-3.189.872-1.394.385-2.645.293-2.645,1.2,0,0-1.443.773-1.107,1.926,0,0,2.9-2.311,5.373-2.7,0,0-1.512.984-1.377,2.318,0,0,2.039-3.049,4.421-1.2,0,0-1.061-1.442-.619-2.236C12.4,75.939,13.188,75.054,14.091,74.083ZM9.5,38.075a.931.931,0,0,1-.389.076,1.072,1.072,0,0,1-.988-.675.42.42,0,0,1-.043-.119l-.313.105a1.418,1.418,0,0,0,1.776.942,1.31,1.31,0,0,0,.468-.283,1.471,1.471,0,0,0,.359-1.548l-.722.247a.852.852,0,0,1,.076.342.718.718,0,0,1-.059.293l.329.2a1.122,1.122,0,0,1-.211.244A.854.854,0,0,1,9.5,38.075Zm29.173-2.334-14.239,3.47v-.016l0,.016L52.254,27.183l-22.92,2.805L41.6,21.033l-13.148,5.13,1.987-3.981-9.406,6.769-.079-.142L34.289,0,12.608,25.649l-.135-13.984L4.517,30.357,4.1,24.846.181,39.181l.007,0v0a4.458,4.458,0,0,1,1.239-.606c.056-.016.115-.03.171-.046.007,0,.013-.007.023-.007.056-.013.115-.026.171-.036.007,0,.016-.007.026-.007A1.512,1.512,0,0,1,2,38.457V38.45c.063-.007.122-.007.178-.013h.036a.863.863,0,0,1,.184,0,.057.057,0,0,1,.023.007.954.954,0,0,1,.165.013.09.09,0,0,0,.03,0,1.369,1.369,0,0,1,.175.033.247.247,0,0,1,.036.007c.059.016.122.033.188.053a3.667,3.667,0,0,0,2.481,0s1.265.81,1.265,1.488h0v0s-1.66.1-1.66-.639a8.024,8.024,0,0,0-5.1.346l6.269,2.693c0-.03-.336-1.2.026-1.6.115-.142.316-.188.633-.082a.237.237,0,0,0,.25-.02c.488-.5-1.878-4.866-1.878-4.866a5.207,5.207,0,0,0-3.96,1.715c-.122.128-.247.263-.366.412v0a8.157,8.157,0,0,1,1.776-2.1,6.017,6.017,0,0,1,2.227-1.2c.244-.583-.066-.2.435-.51,0,0,0-.007,0-.007A17.869,17.869,0,0,1,9.531,25.3c.2-.224.409-.451.629-.668a6.814,6.814,0,0,0-.771,2.456,16.828,16.828,0,0,1,1.835-2.209v0a.23.23,0,0,0-.026.046C11,25.34,9.571,28.4,9.719,29.291a.047.047,0,0,1,.007.02l2.9-2.654-.013.01c-.086.115-2.721,3.678-2.982,4.9v.01l4.388-3.131,0,.007c-.013.026-.553.774-.778,1.185a1.3,1.3,0,0,0-.184.425l.007.023,2.362-1.014s-.1.122-.267.3l-.88.892-.217.23-1.6,1.613-.03.036L11.214,33.38l-.781.793a3.685,3.685,0,0,0-.715,1.008.557.557,0,0,0,.283.547h0a1.754,1.754,0,0,1,.741.8,1.683,1.683,0,0,1,.132.662,1.638,1.638,0,0,1-.507,1.189,1.779,1.779,0,0,1-2.375.082,1.875,1.875,0,0,0,2.5.313l1.96-1.429.086-.066,2.026-1.482A11.408,11.408,0,0,1,15.9,37.805c-1.2,1.143-3.255,3.125-5.3,5.294-1.222,1.287-2.441,2.651-3.479,3.938l.731-3.431.059-.283s0,0,0,.007a.148.148,0,0,0-.02.007s-.01.01-.01.01-.016,0-.02.016a.011.011,0,0,0-.01.01.186.186,0,0,0-.026.013.035.035,0,0,1-.02.016.229.229,0,0,1-.03.02.153.153,0,0,1-.023.023c-.01.01-.013.016-.03.02a.249.249,0,0,1-.03.03c-.01.007-.023.023-.036.026a.078.078,0,0,1-.033.033.227.227,0,0,0-.043.036.308.308,0,0,0-.033.033.143.143,0,0,0-.046.043c-.02.007-.026.02-.046.03a.177.177,0,0,1-.049.049.514.514,0,0,1-.043.04.3.3,0,0,0-.056.056.248.248,0,0,1-.046.036.209.209,0,0,1-.066.066.435.435,0,0,0-.039.036.229.229,0,0,1-.043.036c0,.007,0,.007,0,.007-.02.02-.046.046-.069.072a.189.189,0,0,0-.049.053.646.646,0,0,0-.069.066l-.056.056c-.016.023-.036.04-.046.056a.2.2,0,0,0-.026.026s-.007.01-.016.016l-.043.043-.056.063a.021.021,0,0,1-.016.016.143.143,0,0,1-.023.02.134.134,0,0,1-.04.046.45.45,0,0,1-.076.082c-.02.03-.043.049-.063.079s-.053.059-.076.086-.043.053-.066.079-.053.066-.082.1-.043.053-.066.082-.053.066-.082.105a.837.837,0,0,0-.066.079c-.03.043-.059.079-.092.122a.98.98,0,0,0-.059.079c-.036.049-.076.1-.115.148-.013.02-.033.043-.043.059-.053.072-.112.148-.161.227l-.007.007c-.053.076-.105.148-.155.224a.829.829,0,0,1-.046.069c-.036.056-.076.115-.115.174l-.056.086c-.036.056-.069.109-.109.165-.02.036-.036.066-.056.1-.03.056-.069.115-.105.174-.016.036-.04.069-.056.105-.036.056-.066.119-.105.175-.02.03-.043.072-.063.105-.036.066-.069.125-.105.188-.016.036-.036.072-.056.112-.161.3-.32.6-.478.935v.007l-.807.135c.161-.415.32-.793.494-1.149l-1.315,1.85,1.315-.128A26.407,26.407,0,0,0,1.772,59.99l1.071-.678A11.473,11.473,0,0,0,8.22,67.046l-.007-.033A21.054,21.054,0,0,0,16.9,70.171c.455.056.824.092.906.1,0,0,0,0,0,0a1.617,1.617,0,0,0,.168.017,22.247,22.247,0,0,0,5.146-.148c0,.062-.01.125-.01.188a1.86,1.86,0,0,0,1.347,2.012,42.359,42.359,0,0,0-2.807,6.144,1.47,1.47,0,0,1-.306.546,7.531,7.531,0,0,0-.833.237l.007-.006a3.748,3.748,0,0,0-2.613.1.03.03,0,0,0,.01.013,3.8,3.8,0,0,0-1.868,1.808,3.6,3.6,0,0,1,2.22-.981c-.909.52-2.484,1.508-2.665,2.933,0,0,5.466-3.832,8.157-3.125,0,0-.392.445.537,2.1l.422-1.538c.488-1.495-1.384-1.716-2.171-1.745a.061.061,0,0,0,0-.02s.086-.24.241-.635a37.948,37.948,0,0,1,2.728-5.729.948.948,0,0,0,.049-.122l-.221-.3a2.656,2.656,0,0,0,.244-.3,2.319,2.319,0,0,0,.379-1.225,4.025,4.025,0,0,0-.418-1.669l.7-.323c.036.089.076.171.112.25.01.03.02.056.03.082.02.056.043.115.063.171.01.026.02.056.033.086.02.063.036.118.059.178,0,.016.013.04.02.063l4-1.208-.886-.731H29.68l-.04-.039-.02-.017L14.5,53.563s.007.007.007.007l0-.007c4.2,2.045,9.109,4.422,17.428,8.274,8.2,3.777,13.386,5.976,16.064,7.072.023.013.046.023.066.033h0l1,.408c.573.224,1.11.431,1.14.444.046-.026.1-.039.145-.062L19.77,48.773ZM17.517,42.2l-4.56,3.464,3.271-7.191v-.007A19.961,19.961,0,0,1,17.52,42.2h0ZM33.792,67l.115.547h0l5.327,3.141,1.347.784-.738-1.9c4.395,1.294,7.976,1.367,10.355.247,0,0,0,0,0,0C46.054,71.043,35.778,67.583,33.792,67Z"
              fill="#db0d15"/>
        <path id="Path_79" data-name="Path 79"
              d="M5.1,50.334c0,.734,1.66.639,1.66.639,0-.675-1.262-1.488-1.262-1.488a3.707,3.707,0,0,1-2.487,0,2.5,2.5,0,0,0-1.585.016A12.576,12.576,0,0,0,0,50.689,8,8,0,0,1,5.1,50.334Zm11.125-.942-3.271,7.191,4.56-3.467A19.889,19.889,0,0,0,16.23,49.392ZM50.223,80.73S39.983,76.891,14.5,64.5L29.688,78.324h.007a3.861,3.861,0,0,1,4.21.142l-.112-.547C35.776,78.5,46.088,81.978,50.223,80.73Zm-24.656-.978a4.025,4.025,0,0,1,.418,1.669,2.284,2.284,0,0,1-.379,1.225,3.612,3.612,0,0,1-.244.3l.455.622a2.657,2.657,0,0,0,.936-2.147,4.788,4.788,0,0,0-.488-2Zm-9.139,1.66c.721.115,1.38.175,1.38.175l.033-.383s-.646-.055-1.351-.171ZM15.907,48.74a11.3,11.3,0,0,0-1.338-2.012L10.5,49.708a1.883,1.883,0,0,1-2.51-.319,1.759,1.759,0,0,0,1.146.418,1.723,1.723,0,0,0,1.746-1.689,1.652,1.652,0,0,0-.135-.655,1.714,1.714,0,0,0-.741-.8l.007,0a.557.557,0,0,1-.283-.547,3.615,3.615,0,0,1,.715-1.008l0,0,2-2.032.03-.036L14.286,41.2l.88-.892c.165-.178.264-.3.264-.3l-2.365,1.008s-.046-.026.184-.448.784-1.192.784-1.192L9.641,42.507c.254-1.228,3-4.912,3-4.912l-2.9,2.65c-.194-.925,1.5-4.435,1.5-4.435A15.848,15.848,0,0,0,9.4,38.026a6.835,6.835,0,0,1,.768-2.463,17.646,17.646,0,0,0-4.741,9.558c-.511.319-.2-.069-.441.517a7.331,7.331,0,0,0-4.009,3.3,5.3,5.3,0,0,1,4.329-2.127S8.188,52.128,6.936,51.7s-.659,1.679-.659,1.679L3.919,52.362a6.885,6.885,0,0,1,.715,4.465A14.4,14.4,0,0,0,3.24,59.569l.807-.135c.158-.339.313-.645.471-.938a.948.948,0,0,0,.063-.112c.033-.063.066-.122.105-.184l.063-.112c.033-.056.063-.115.1-.171.023-.04.046-.072.063-.109.036-.056.066-.115.105-.168a.663.663,0,0,1,.056-.1c.036-.056.072-.115.109-.171a.657.657,0,0,1,.056-.089,1.733,1.733,0,0,1,.115-.171.39.39,0,0,1,.046-.072c.049-.076.1-.148.155-.221,0,0,.007-.01.007-.01.053-.079.105-.148.155-.221.016-.016.033-.043.049-.063l.112-.151a.431.431,0,0,1,.063-.072c.026-.039.056-.082.089-.125a.7.7,0,0,0,.066-.079c.03-.036.056-.072.086-.105s.046-.053.066-.079l.079-.1c.026-.026.043-.053.066-.079a1.077,1.077,0,0,1,.079-.089c.02-.026.043-.049.063-.072s.053-.056.072-.086.043-.049.066-.069.046-.049.072-.076.036-.04.056-.066.049-.049.072-.076a.369.369,0,0,0,.056-.063A.673.673,0,0,1,7,55.075a.684.684,0,0,1,.049-.053c.023-.023.046-.053.069-.072s.03-.03.046-.039c.04-.039.069-.069.1-.105a.249.249,0,0,0,.046-.036.455.455,0,0,1,.056-.056.482.482,0,0,1,.043-.04.176.176,0,0,0,.049-.049c.02-.01.026-.02.046-.03a.144.144,0,0,1,.046-.043c.01-.01.02-.026.033-.033a.414.414,0,0,0,.043-.036.077.077,0,0,0,.033-.033c.013,0,.023-.016.036-.026a.084.084,0,0,0,.03-.03.052.052,0,0,0,.03-.02.077.077,0,0,0,.023-.023.094.094,0,0,0,.03-.02.034.034,0,0,0,.02-.016.1.1,0,0,1,.026-.013.011.011,0,0,1,.01-.01c0-.01.013-.01.02-.016s.01-.007.01-.01.01-.007.02-.007,0-.007,0-.007l-.059.283-.731,3.431A107.786,107.786,0,0,1,15.907,48.74ZM7.77,48.381l.316-.105a.459.459,0,0,0,.043.118,1.072,1.072,0,0,0,.988.675.932.932,0,0,0,.389-.076A1.051,1.051,0,0,0,10,48.579l-.329-.2a.686.686,0,0,0,.059-.3.854.854,0,0,0-.076-.342l.721-.247a1.378,1.378,0,1,1-2.6.889Z"
              transform="translate(-0.001 -10.918)"/>
        <path id="Path_80" data-name="Path 80"
              d="M91.087,62.191a9.014,9.014,0,0,0-2.158-.2H86.877V73.58l.218-.151,1.687-1.189.06-.043V68.918h.642a4.23,4.23,0,0,0,2.866-.935,3.215,3.215,0,0,0,1.077-2.539,3.34,3.34,0,0,0-1-2.476A2.984,2.984,0,0,0,91.087,62.191Zm-1.71,5.054h-.54V63.692h.606c1.548,0,2.332.573,2.332,1.719C91.776,66.633,90.972,67.245,89.377,67.245ZM102,68.638a3.193,3.193,0,0,0,1.671-1.1,3.311,3.311,0,0,0,.711-2.127,3.2,3.2,0,0,0-1.136-2.552,5.085,5.085,0,0,0-3.291-.869H97.841v11.59l.214-.151,1.693-1.189.06-.043V68.881H99.9l3.156,4.517.076.112.115-.082,1.354-.978.115-.082-.082-.112ZM99.8,67.245V63.692h.606c1.552,0,2.333.573,2.333,1.719q0,1.832-2.4,1.834ZM72.543,62.332a8.688,8.688,0,0,0-2.708-.342H67.35V73.448h2.458a8.739,8.739,0,0,0,2.669-.316A5.835,5.835,0,0,0,74.5,63.468,5.231,5.231,0,0,0,72.543,62.332Zm.55,8.251a3.65,3.65,0,0,1-1.318.767,6.033,6.033,0,0,1-1.838.234h-.623V63.854h.623a4.556,4.556,0,0,1,3.166.981,4.064,4.064,0,0,1-.01,5.749Zm-12.9-6.941a4.2,4.2,0,0,1,2.138.616l.122.069.066-.118.82-1.413.069-.119-.119-.072a5.93,5.93,0,0,0-2.978-.83A5.772,5.772,0,0,0,55.7,63.87a5.906,5.906,0,0,0-1.446,3.9,5.725,5.725,0,0,0,1.726,4.168,5.8,5.8,0,0,0,4.2,1.712,6.237,6.237,0,0,0,3.107-.84l.069-.043v-.115l-.016-.033L62.517,71.2l-.072-.125-.125.082a4.227,4.227,0,0,1-.662.352,3.432,3.432,0,0,1-1.463.277,3.806,3.806,0,0,1-2.81-1.169,3.95,3.95,0,0,1-1.146-2.871,4.05,4.05,0,0,1,1.146-2.914A3.767,3.767,0,0,1,60.192,63.643Zm129.2.214.037-.04,1.555-1.587.234-.24h-6.645V73.448h4.853l.04-.039,1.522-1.587.225-.234h-4.675V68.029h1.443l.04-.043,1.578-1.58.234-.24h-3.292V63.857Zm-33.624,0h2.57V73.58l.217-.151,1.687-1.189.06-.043V63.86h2.566V61.993h-7.1v1.864Zm-41.56-2.074a5.867,5.867,0,0,0-4.243,1.735,5.907,5.907,0,0,0,.168,8.6,6.048,6.048,0,0,0,8.259-.194,5.643,5.643,0,0,0,1.769-4.191,5.993,5.993,0,0,0-5.953-5.953Zm2.8,8.834a3.924,3.924,0,0,1-2.877,1.172,4.073,4.073,0,0,1,.05-8.146,3.828,3.828,0,0,1,2.84,1.179,3.959,3.959,0,0,1,1.156,2.9A4.01,4.01,0,0,1,117.012,70.617Zm85.936-7.148a5.256,5.256,0,0,0-1.96-1.136,8.662,8.662,0,0,0-2.708-.342H195.8V73.448h2.455a8.767,8.767,0,0,0,2.675-.316,5.842,5.842,0,0,0,2.023-9.664Zm-1.407,7.115a3.742,3.742,0,0,1-1.315.767,6.089,6.089,0,0,1-1.845.234h-.622V63.854h.622a4.578,4.578,0,0,1,3.172.981,3.785,3.785,0,0,1,1.183,2.881A3.715,3.715,0,0,1,201.541,70.584Zm-24.521-1.946a3.208,3.208,0,0,0,1.67-1.1,3.289,3.289,0,0,0,.708-2.127,3.2,3.2,0,0,0-1.137-2.552,5.106,5.106,0,0,0-3.291-.869h-2.118v11.59l.218-.151,1.693-1.189.063-.043V68.881h.092l3.15,4.517.082.112.116-.082,1.354-.978.109-.082-.076-.112Zm-2.194-1.393V63.692h.6q2.333,0,2.333,1.719,0,1.832-2.4,1.834Zm-24.433-5.212-4.114,4.218V61.865l-.221.158-1.687,1.185-.06.043V73.58l.225-.151,1.687-1.189.056-.043V68.743l.2-.2,3.93,4.856.076.1.108-.069,1.447-.978.125-.086-.1-.122-4.188-5.041,4.965-4.968.237-.24h-2.646Zm-24.178,1.179-.059.043v6.1a4.531,4.531,0,0,1-.29,1.933.92.92,0,0,1-.915.5,1.94,1.94,0,0,1-1.064-.382l-.125-.082-.073.125-.836,1.439-.067.118.116.072a3.97,3.97,0,0,0,2.049.573,2.969,2.969,0,0,0,2.352-1.04,3.126,3.126,0,0,0,.646-1.284,7.922,7.922,0,0,0,.184-1.966v-7.5l-.224.158Zm12.081.645.042-.04,1.555-1.587.227-.24h-6.635V73.448h4.846l.046-.039,1.516-1.587.225-.234h-4.669V68.029h1.433l.036-.043,1.579-1.58.234-.24h-3.285V63.857Z"
              transform="translate(-16.658 -18.966)" fill="#fff"/>
        <path id="Path_81" data-name="Path 81"
              d="M275.9,65.785a2,2,0,1,1,2.007-2A2,2,0,0,1,275.9,65.785Zm0-3.7a1.7,1.7,0,1,0,1.7,1.7A1.688,1.688,0,0,0,275.9,62.08Zm.55,2.855-.6-.905h-.4v.905h-.32V62.64h.936a.714.714,0,0,1,.748.7.671.671,0,0,1-.587.678l.613.915h-.4Zm-.378-2.012h-.613v.81h.613a.405.405,0,1,0,0-.81Z"
              transform="translate(-84.09 -18.968)" fill="#fff"/>
    </g>
</svg>
